<svg width="173" height="15" viewBox="0 0 173 15" fill="none" xmlns="http://www.w3.org/2000/svg">
<path d="M0.440855 13.6891C-0.111622 13.3208 -0.111624 12.7683 0.256694 12.2772L0.625011 11.7862C0.993329 11.2951 1.48442 11.2337 2.0369 11.5406C3.01908 12.0317 4.18542 12.2159 4.92205 12.2159C6.70225 12.2159 7.92998 11.1723 7.92998 9.69902C7.92998 8.22575 6.82503 7.42773 5.29037 7.42773C3.75572 7.42773 3.75571 7.61189 3.01908 8.04159C2.52799 8.28714 2.15967 8.40991 1.66858 8.22575L1.1161 7.9802C0.563626 7.73466 0.379469 7.42773 0.379469 6.81387L0.747786 1.2891C0.747786 0.613853 1.1161 0.306917 1.79135 0.306917H9.09632C9.71018 0.306917 10.0785 0.675239 10.0785 1.2891V1.90296C10.0785 2.51683 9.71018 2.88514 9.09632 2.88514H3.57155L3.32601 6.01584C4.00126 5.46337 5.1676 5.09505 6.33394 5.09505C9.21909 5.09505 11.1221 7.1208 11.1221 9.69902C11.1221 12.2772 8.97355 14.8555 5.1676 14.8555C1.36165 14.8555 1.85274 14.4872 0.563625 13.6891H0.440855Z" fill="#428D34"/>
<path d="M12.7803 13.6891V13.4436C12.6576 12.9525 12.7803 12.5228 13.21 12.1545L18.1823 7.67329C19.2873 6.69111 20.0853 5.77031 20.0853 4.60397C20.0853 3.43763 19.1031 2.63961 17.814 2.63961C16.5249 2.63961 15.9724 3.1307 15.7269 3.74457C15.4813 4.29704 15.2358 4.60397 14.6833 4.60397H13.5784C12.9031 4.60397 12.5348 4.23566 12.6576 3.56041C13.0259 1.7802 14.5605 0 17.9368 0C21.313 0 23.216 1.7802 23.216 4.60397C23.216 7.42774 21.9269 8.22577 20.5764 9.39211L17.5071 12.0317C18.3051 12.0317 20.3308 12.0317 20.4536 12.0317H22.8477C23.4616 12.0317 23.8299 12.4 23.8299 13.0139V13.6278C23.8299 14.2416 23.4616 14.6099 22.8477 14.6099H13.9467C13.3328 14.6099 12.9645 14.303 12.9031 13.6891H12.7803Z" fill="#428D34"/>
<path d="M25.3016 10.3743C25.3016 8.65547 26.7135 7.30498 28.0026 6.93666C27.0205 6.56834 25.9155 5.52478 25.9155 4.0515C25.9155 1.71883 28.1254 0.0613957 31.3789 0.0613957C34.6324 0.0613957 36.8423 1.71883 36.8423 4.0515C36.8423 6.38418 35.7373 6.56834 34.7551 6.93666C35.9829 7.30498 37.4561 8.59409 37.4561 10.3743C37.4561 13.0139 34.8779 14.7941 31.3789 14.7941C27.8799 14.7941 25.3016 13.0139 25.3016 10.3743ZM34.1413 10.1901C34.1413 9.14657 33.1591 8.16438 31.3789 8.16438C29.5987 8.16438 28.6165 9.08518 28.6165 10.1901C28.6165 11.2951 29.7215 12.2159 31.3789 12.2159C33.0363 12.2159 34.1413 11.2951 34.1413 10.1901ZM33.6502 4.35844C33.6502 3.43764 32.7294 2.63962 31.3789 2.63962C30.0284 2.63962 29.0462 3.43764 29.0462 4.35844C29.0462 5.27923 29.8442 6.13863 31.3789 6.13863C32.9135 6.13863 33.6502 5.21784 33.6502 4.35844Z" fill="#428D34"/>
<path d="M39.115 7.48915C39.115 3.37627 41.5091 0.122791 45.4992 0.122791C49.4893 0.122791 51.8834 3.43765 51.8834 7.48915C51.8834 11.5406 49.4279 14.8555 45.4992 14.8555C41.5705 14.8555 39.115 11.5406 39.115 7.48915ZM48.814 7.48915C48.814 4.78815 47.5249 2.70101 45.4992 2.70101C43.4734 2.70101 42.2457 4.78815 42.2457 7.48915C42.2457 10.1901 43.4734 12.2773 45.4992 12.2773C47.5249 12.2773 48.814 10.1901 48.814 7.48915Z" fill="#428D34"/>
<path d="M56.3034 11.0495V3.74456C56.3034 3.37625 56.5489 3.19209 56.9172 3.19209H57.6539C58.0222 3.19209 58.2063 3.37625 58.2063 3.74456V6.81388H61.3984V3.74456C61.3984 3.37625 61.5826 3.19209 61.9509 3.19209H62.6875C63.0558 3.19209 63.24 3.37625 63.24 3.74456V11.0495C63.24 11.4178 63.0558 11.602 62.6875 11.602H61.9509C61.5826 11.602 61.3984 11.4178 61.3984 11.0495V8.34854H58.2063V11.0495C58.2063 11.4178 58.0222 11.602 57.6539 11.602H56.9172C56.5489 11.602 56.3034 11.4178 56.3034 11.0495Z" fill="#6C4F32"/>
<path d="M64.8972 9.02377V6.01584C64.8972 5.64752 65.0814 5.46336 65.4497 5.46336H66.1863C66.5546 5.46336 66.7388 5.64752 66.7388 6.01584V8.90099C66.7388 9.7604 67.1071 10.3129 67.721 10.3129C68.3348 10.3129 69.0101 9.82179 69.0101 8.65545V6.07722C69.0101 5.70891 69.1942 5.52475 69.5626 5.52475H70.2378C70.6061 5.52475 70.8517 5.70891 70.8517 6.07722V11.1109C70.8517 11.4792 70.6061 11.6634 70.2378 11.6634H69.5626C69.1942 11.6634 69.0101 11.4792 69.0101 11.1109V10.6812C68.7032 11.3564 68.0279 11.7862 67.1071 11.7862C65.4497 11.7862 64.8358 10.497 64.8358 9.02377H64.8972Z" fill="#6C4F32"/>
<path d="M72.4477 11.0496V6.01588C72.4477 5.64756 72.6318 5.4634 73.0001 5.4634H73.7368C74.1051 5.4634 74.2893 5.64756 74.2893 6.01588V6.44558C74.5348 5.70895 75.21 5.34063 75.9467 5.34063C76.6833 5.34063 77.3586 5.64756 77.7269 6.44558C78.2794 5.52479 79.016 5.34063 79.7526 5.34063C81.3487 5.34063 82.0239 6.62974 82.0239 8.10301V11.1109C82.0239 11.4793 81.7784 11.6634 81.4101 11.6634H80.7348C80.3665 11.6634 80.1823 11.4793 80.1823 11.1109V8.22578C80.1823 7.36638 79.814 6.87529 79.2616 6.87529C78.7091 6.87529 78.1566 7.30499 78.1566 8.40995V11.1109C78.1566 11.4793 77.9724 11.6634 77.6041 11.6634H76.8675C76.4992 11.6634 76.315 11.4793 76.315 11.1109V8.22578C76.315 7.36638 76.0081 6.87529 75.4556 6.87529C74.9031 6.87529 74.3506 7.30499 74.3506 8.47133V11.1109C74.3506 11.4793 74.1665 11.6634 73.7982 11.6634H73.0615C72.6932 11.6634 72.5091 11.4793 72.5091 11.1109L72.4477 11.0496Z" fill="#6C4F32"/>
<path d="M83.1289 8.53271C83.1289 6.69112 84.3567 5.27923 86.1369 5.27923C87.9171 5.27923 87.6715 5.58616 88.1626 6.3228V6.01587C88.1626 5.64755 88.3468 5.46339 88.7151 5.46339H89.4517C89.82 5.46339 90.0042 5.64755 90.0042 6.01587V11.0495C90.0042 11.4179 89.82 11.602 89.4517 11.602H88.7151C88.3468 11.602 88.1626 11.4179 88.1626 11.0495V10.7426C87.7329 11.4179 86.9963 11.7248 86.1369 11.7248C84.418 11.7248 83.1289 10.3129 83.1289 8.47132V8.53271ZM88.1012 8.53271C88.1012 7.55052 87.4874 6.81389 86.5052 6.81389C85.523 6.81389 84.9705 7.61191 84.9705 8.53271C84.9705 9.4535 85.523 10.2515 86.5052 10.2515C87.4874 10.2515 88.1012 9.51489 88.1012 8.53271Z" fill="#6C4F32"/>
<path d="M91.4773 11.0496V6.01588C91.4773 5.64756 91.6614 5.4634 92.0298 5.4634H92.7664C93.1347 5.4634 93.3189 5.64756 93.3189 6.01588V6.44558C93.6258 5.70895 94.301 5.34063 95.2218 5.34063C96.8793 5.34063 97.4931 6.62974 97.4931 8.10301V11.1109C97.4931 11.4793 97.2476 11.6634 96.8793 11.6634H96.204C95.8357 11.6634 95.6515 11.4793 95.6515 11.1109V8.22578C95.6515 7.36638 95.2832 6.87529 94.6694 6.87529C94.0555 6.87529 93.3803 7.36638 93.3803 8.53272V11.1109C93.3803 11.4793 93.1961 11.6634 92.8278 11.6634H92.0911C91.7228 11.6634 91.5387 11.4793 91.5387 11.1109L91.4773 11.0496Z" fill="#6C4F32"/>
<path d="M101.543 7.42773C101.543 5.09505 103.324 3.0693 106.209 3.0693C109.094 3.0693 108.112 3.37623 108.787 3.86732C109.094 4.05148 109.155 4.35841 108.91 4.66534L108.603 5.03366C108.357 5.34059 108.112 5.34059 107.805 5.15643C107.314 4.8495 106.761 4.72673 106.209 4.72673C104.49 4.72673 103.508 5.95446 103.508 7.42773C103.508 8.901 104.551 10.1287 106.209 10.1287C107.866 10.1287 107.314 10.0059 107.805 9.69902C108.112 9.51486 108.419 9.51486 108.603 9.82179L108.91 10.1901C109.155 10.497 109.094 10.7426 108.91 10.9881C108.173 11.4792 107.375 11.8475 106.27 11.8475C103.385 11.8475 101.605 9.82179 101.605 7.48911L101.543 7.42773Z" fill="#6C4F32"/>
<path d="M109.708 8.53271C109.708 6.69112 110.935 5.27923 112.716 5.27923C114.496 5.27923 114.25 5.58616 114.741 6.3228V6.01587C114.741 5.64755 114.926 5.46339 115.294 5.46339H116.03C116.399 5.46339 116.583 5.64755 116.583 6.01587V11.0495C116.583 11.4179 116.399 11.602 116.03 11.602H115.294C114.926 11.602 114.741 11.4179 114.741 11.0495V10.7426C114.312 11.4179 113.575 11.7248 112.716 11.7248C110.997 11.7248 109.708 10.3129 109.708 8.47132V8.53271ZM114.741 8.53271C114.741 7.55052 114.128 6.81389 113.145 6.81389C112.163 6.81389 111.611 7.61191 111.611 8.53271C111.611 9.4535 112.163 10.2515 113.145 10.2515C114.128 10.2515 114.741 9.51489 114.741 8.53271Z" fill="#6C4F32"/>
<path d="M118.057 11.0496V6.01588C118.057 5.64756 118.241 5.4634 118.609 5.4634H119.284C119.653 5.4634 119.837 5.64756 119.837 6.01588V6.8139C120.021 5.64756 120.942 5.34063 121.433 5.34063H121.617C121.924 5.34063 121.985 5.58617 121.985 5.83172V6.69113C121.985 7.05945 121.801 7.18222 121.556 7.12083C121.433 7.12083 121.372 7.12083 121.249 7.12083C120.512 7.12083 119.837 7.61192 119.837 9.14658V11.1109C119.837 11.4793 119.653 11.6634 119.284 11.6634H118.548C118.179 11.6634 117.995 11.4793 117.995 11.1109L118.057 11.0496Z" fill="#6C4F32"/>
<path d="M122.478 8.53271C122.478 6.7525 123.767 5.27923 125.915 5.27923C128.064 5.27923 129.107 6.3228 129.23 8.34855C129.23 8.71687 128.985 8.83964 128.616 8.83964H124.258C124.258 9.57627 124.995 10.3129 126.161 10.3129C127.327 10.3129 127.082 10.1901 127.511 9.94459C127.818 9.76043 128.125 9.76043 128.309 10.0674L128.432 10.2515C128.678 10.5585 128.678 10.8654 128.309 11.1109C127.573 11.602 126.775 11.7862 125.977 11.7862C123.767 11.7862 122.416 10.3743 122.416 8.59409L122.478 8.53271ZM127.45 7.79607C127.266 6.93666 126.591 6.69112 125.915 6.69112C125.24 6.69112 124.503 6.99805 124.319 7.79607H127.45Z" fill="#6C4F32"/>
<path d="M132.851 7.42773C132.851 5.09505 134.631 3.0693 137.516 3.0693C140.401 3.0693 139.419 3.37623 140.094 3.86732C140.401 4.05148 140.463 4.35841 140.217 4.66534L139.91 5.03366C139.665 5.34059 139.419 5.34059 139.112 5.15643C138.621 4.8495 138.069 4.72673 137.516 4.72673C135.797 4.72673 134.815 5.95446 134.815 7.42773C134.815 8.901 135.859 10.1287 137.516 10.1287C139.174 10.1287 138.621 10.0059 139.112 9.69902C139.419 9.51486 139.726 9.51486 139.91 9.82179L140.217 10.1901C140.463 10.497 140.401 10.7426 140.217 10.9881C139.48 11.4792 138.682 11.8475 137.577 11.8475C134.692 11.8475 132.912 9.82179 132.912 7.48911L132.851 7.42773Z" fill="#6C4F32"/>
<path d="M141.016 8.53271C141.016 6.7525 142.305 5.27923 144.453 5.27923C146.602 5.27923 147.645 6.3228 147.768 8.34855C147.768 8.71687 147.523 8.83964 147.154 8.83964H142.796C142.796 9.57627 143.532 10.3129 144.699 10.3129C145.865 10.3129 145.62 10.1901 146.049 9.94459C146.356 9.76043 146.663 9.76043 146.847 10.0674L146.97 10.2515C147.216 10.5585 147.216 10.8654 146.847 11.1109C146.111 11.602 145.313 11.7862 144.515 11.7862C142.305 11.7862 140.954 10.3743 140.954 8.59409L141.016 8.53271ZM145.927 7.79607C145.742 6.93666 145.067 6.69112 144.392 6.69112C143.717 6.69112 142.98 6.99805 142.796 7.79607H145.927Z" fill="#6C4F32"/>
<path d="M148.75 11.0496V6.01588C148.75 5.64756 148.934 5.4634 149.303 5.4634H150.039C150.408 5.4634 150.592 5.64756 150.592 6.01588V6.44558C150.899 5.70895 151.574 5.34063 152.495 5.34063C154.152 5.34063 154.766 6.62974 154.766 8.10301V11.1109C154.766 11.4793 154.521 11.6634 154.152 11.6634H153.477C153.109 11.6634 152.924 11.4793 152.924 11.1109V8.22578C152.924 7.36638 152.556 6.87529 151.942 6.87529C151.328 6.87529 150.653 7.36638 150.653 8.53272V11.1109C150.653 11.4793 150.469 11.6634 150.101 11.6634H149.364C148.996 11.6634 148.812 11.4793 148.812 11.1109L148.75 11.0496Z" fill="#6C4F32"/>
<path d="M156.546 9.57629V6.8139H155.932C155.748 6.8139 155.626 6.69113 155.626 6.50697V5.70895C155.626 5.52479 155.748 5.40202 155.932 5.40202H156.669L156.853 4.1129C156.853 3.86736 157.099 3.74459 157.344 3.74459H157.958C158.265 3.74459 158.388 3.92874 158.388 4.17429V5.40202H159.8C159.984 5.40202 160.107 5.52479 160.107 5.70895V6.50697C160.107 6.69113 159.984 6.8139 159.8 6.8139H158.388V9.63767C158.388 10.0674 158.633 10.2515 158.879 10.2515C159.125 10.2515 159.37 10.006 159.37 9.69906C159.37 9.39212 159.37 9.57628 159.37 9.45351C159.37 9.20796 159.37 9.14658 159.616 9.14658H160.352C160.536 9.14658 160.659 9.14658 160.721 9.39212C160.721 9.57628 160.782 9.76044 160.782 9.88322C160.782 11.2337 159.8 11.7862 158.695 11.7862C157.59 11.7862 156.546 11.2951 156.546 9.57629Z" fill="#6C4F32"/>
<path d="M161.334 8.53271C161.334 6.7525 162.623 5.27923 164.772 5.27923C166.92 5.27923 167.964 6.3228 168.087 8.34855C168.087 8.71687 167.841 8.83964 167.473 8.83964H163.114C163.114 9.57627 163.851 10.3129 165.017 10.3129C166.184 10.3129 165.938 10.1901 166.368 9.94459C166.675 9.76043 166.982 9.76043 167.166 10.0674L167.289 10.2515C167.534 10.5585 167.534 10.8654 167.166 11.1109C166.429 11.602 165.631 11.7862 164.833 11.7862C162.623 11.7862 161.273 10.3743 161.273 8.59409L161.334 8.53271ZM166.245 7.79607C166.061 6.93666 165.386 6.69112 164.71 6.69112C164.035 6.69112 163.298 6.99805 163.114 7.79607H166.245Z" fill="#6C4F32"/>
<path d="M169.069 11.0496V6.01588C169.069 5.64756 169.254 5.4634 169.622 5.4634H170.297C170.665 5.4634 170.85 5.64756 170.85 6.01588V6.8139C171.034 5.64756 171.955 5.34063 172.446 5.34063H172.63C172.937 5.34063 172.998 5.58617 172.998 5.83172V6.69113C172.998 7.05945 172.814 7.18222 172.568 7.12083C172.446 7.12083 172.384 7.12083 172.261 7.12083C171.525 7.12083 170.85 7.61192 170.85 9.14658V11.1109C170.85 11.4793 170.665 11.6634 170.297 11.6634H169.56C169.192 11.6634 169.008 11.4793 169.008 11.1109L169.069 11.0496Z" fill="#6C4F32"/>
</svg>
