<svg width="54" height="72" viewBox="0 0 54 72" fill="none" xmlns="http://www.w3.org/2000/svg">
<path d="M21.8848 49.405C21.8848 29.6345 37.9827 19.7799 38.35 19.5963C35.5956 22.1058 26.2918 33.8579 26.2918 49.6498C26.2918 65.4417 25.7409 62.0752 28.1893 71.4402C26.7815 68.9918 21.8848 59.3208 21.8848 49.405Z" fill="#6C4F32"/>
<path d="M22.9862 36.9184C19.987 25.2275 12.5195 18.3109 12.5195 18.2497C13.4377 18.9842 21.0276 24.187 25.1898 32.1441C24.1492 33.7356 23.5371 35.4494 22.9862 36.8572V36.9184Z" fill="#6C4F32"/>
<path d="M27.1498 60.3002C27.9455 60.3614 28.9248 60.3614 29.6593 60.3002C31.0671 60.0554 32.2913 59.5045 33.1482 58.2803C33.9439 57.1173 34.1888 55.7095 34.1888 54.3629C34.1888 47.936 29.6593 39.3056 29.1084 38.0202C29.1084 38.1426 28.1903 41.0194 27.7006 44.6307C28.8636 46.9567 30.3938 50.2007 30.3938 52.7715C30.3938 55.3423 29.4145 57.1173 27.0273 57.607C27.0273 57.9131 27.1498 59.8105 27.211 60.3614L27.1498 60.3002Z" fill="#6C4F32"/>
<path d="M11.541 55.2199C17.7843 58.8312 22.5586 59.7493 22.5586 59.7493C22.5586 59.7493 22.1914 58.3415 22.0689 57.6682C17.8455 57.3622 11.541 55.2811 11.541 55.2811V55.2199Z" fill="#6A4E31"/>
<path d="M26.6243 28.2625C27.9505 27.8596 28.6192 26.1957 28.118 24.5461C27.6169 22.8965 26.1355 21.8859 24.8094 22.2888C23.4833 22.6917 22.8145 24.3556 23.3157 26.0052C23.8169 27.6548 25.2982 28.6654 26.6243 28.2625Z" fill="#6C4F32"/>
<path d="M14.3567 25.2887C14.3567 25.2887 13.6834 27.2474 13.3162 31.226C13.3162 31.226 13.9283 27.8595 15.2749 25.4112C15.2749 25.4112 17.0499 26.5129 17.0499 28.4716C17.0499 30.4303 15.7033 31.7157 14.4791 32.695C13.255 33.6744 12.7653 35.0822 12.7653 35.633C12.7653 35.633 10.9902 32.5726 10.9902 29.5121C10.9902 26.4517 14.3567 25.2887 14.3567 25.2887Z" fill="url(#paint0_linear_1001_54969)"/>
<path d="M18.5796 18.9842C18.5796 18.9842 17.9676 17.1479 15.8865 13.9651C15.8865 13.9651 17.4167 16.8419 17.7839 19.4127C17.7839 19.4127 15.8252 19.5963 14.7235 18.1885C13.6217 16.7807 13.8666 15.0056 14.1726 13.5366C14.4786 12.0676 14.0502 10.7822 13.7441 10.3538C13.7441 10.3538 16.8658 11.6391 18.6409 13.9039C20.722 16.5971 18.6409 19.0454 18.6409 19.0454L18.5796 18.9842Z" fill="url(#paint1_linear_1001_54969)"/>
<path d="M22.436 18.0661C22.436 18.0661 23.6602 16.5359 25.1904 13.0469C25.1904 13.0469 23.599 15.8626 21.7015 17.6376C21.7015 17.6376 20.5386 15.8626 21.1507 14.1487C21.7627 12.4349 23.4154 11.7616 24.762 11.2107C26.1698 10.6598 26.8431 9.74167 27.0267 9.252C27.0267 9.252 27.7 12.5573 26.7819 15.2505C25.6801 18.4333 22.4972 18.0661 22.4972 18.0661H22.436Z" fill="url(#paint2_linear_1001_54969)"/>
<path d="M30.3315 20.2084C30.3315 20.2084 30.5763 18.923 30.3315 16.3522C30.3315 16.3522 30.3315 18.5557 29.7194 20.2084C29.7194 20.2084 28.4952 19.5351 28.2504 18.3109C28.0056 17.0867 28.8013 16.1686 29.4746 15.4341C30.1479 14.6996 30.2703 13.9039 30.2091 13.5366C30.2091 13.5366 31.6781 15.3117 31.9841 17.2092C32.3514 19.4739 30.3315 20.2084 30.3315 20.2084Z" fill="url(#paint3_linear_1001_54969)"/>
<path d="M9.82653 20.8205C10.3162 20.8205 11.418 20.9429 12.1525 21.4326C12.1525 21.4326 9.6429 22.7792 7.62301 24.4318C7.62301 24.4318 11.1119 22.4731 12.6421 22.1671C12.6421 22.1671 13.3154 26.3905 8.66356 26.3905C4.01169 26.3905 6.94971 26.2681 6.27641 26.2681C5.60312 26.2681 4.99103 26.3905 4.19531 26.8801C4.62377 25.4723 6.46004 20.7593 9.76532 20.7593L9.82653 20.8205Z" fill="url(#paint4_linear_1001_54969)"/>
<path d="M6.33792 33.1847C6.33792 33.1847 6.1543 32.2053 6.1543 30.7975C6.1543 29.3897 7.07243 28.4716 8.41903 28.4716C8.41903 28.4716 7.68452 29.4509 7.31727 30.9199C7.31727 30.9199 8.35782 29.2061 8.9699 28.594C8.9699 28.594 9.45958 29.0837 9.45958 29.8794C9.45958 30.6751 8.72507 31.4708 7.80694 31.8993C6.8888 32.3277 6.58276 32.5114 6.33792 33.1847Z" fill="url(#paint5_linear_1001_54969)"/>
<path d="M6.2153 21.1877C6.2153 21.1877 5.72563 22.3507 4.37903 22.3507C3.03244 22.3507 1.62463 20.086 0.0332031 20.086C0.0332031 20.086 1.86947 18.8006 3.82815 18.8006C5.78684 18.8006 6.2153 20.2696 6.2153 20.5756C6.2153 20.5756 5.29717 20.2084 3.21606 20.3308C3.21606 20.3308 5.41958 20.7593 6.2153 21.1877Z" fill="url(#paint6_linear_1001_54969)"/>
<path d="M2.9707 13.7814C2.9707 13.7814 4.19488 13.2918 6.88807 13.2918C9.58126 13.2918 11.4175 14.6384 11.4175 16.9031C11.4175 16.9031 9.45884 15.6789 7.19412 15.3117C7.19412 15.3117 10.1321 16.8419 11.1115 17.8212C11.1115 17.8212 10.5606 18.8006 8.78555 18.8006C5.11301 18.8006 5.48027 14.2711 2.9707 13.8427V13.7814Z" fill="url(#paint7_linear_1001_54969)"/>
<path d="M5.23633 4.47771C5.23633 4.47771 6.70534 4.53892 9.33732 5.82431C11.9693 7.1097 13.1935 9.25201 12.0917 11.4555C12.0917 11.4555 10.7451 9.37442 8.72523 7.90541C8.72523 7.90541 10.8675 10.7822 11.4184 12.2512C11.4184 12.2512 10.4391 12.9245 8.66402 12.1288C5.0527 10.415 7.50106 6.13035 5.23633 4.53892V4.47771Z" fill="url(#paint8_linear_1001_54969)"/>
<path d="M15.0296 1.17242C15.0296 1.17242 16.2538 1.66209 18.2125 3.43715C20.1712 5.2122 20.5996 7.41572 19.0694 9.06836C19.0694 9.06836 18.4573 6.86484 17.1107 5.08979C17.1107 5.08979 18.2125 8.15023 18.2737 9.55803C18.2737 9.55803 17.2331 9.86408 15.9477 8.70111C13.2545 6.25275 16.5598 3.19231 15.0296 1.17242Z" fill="url(#paint9_linear_1001_54969)"/>
<path d="M24.5781 0.560333C24.5781 0.560333 25.3738 1.41726 26.2307 3.62078C27.0876 5.8243 26.5367 7.78298 24.7005 8.51749C24.7005 8.51749 24.9453 6.92606 24.5781 4.90616C24.5781 4.90616 24.3332 7.41573 23.8435 8.5787C23.8435 8.5787 22.8642 8.39507 22.3133 6.98727C21.1504 3.92682 25.0065 2.82506 24.5781 0.621542V0.560333Z" fill="url(#paint10_linear_1001_54969)"/>
<path d="M33.8204 28.7776C33.8204 28.7776 33.2695 29.5121 33.2695 30.7363C33.2695 34.1028 37.3705 33.5519 38.4723 35.633C38.4723 35.633 39.8189 28.4104 34.5549 28.4104C34.5549 28.4104 36.2688 31.1036 36.7584 32.3889C36.7584 32.3889 34.6161 29.5121 33.7592 28.7776H33.8204Z" fill="url(#paint11_linear_1001_54969)"/>
<path d="M36.2084 25.5336C36.2084 25.5336 36.8205 26.2069 38.0447 26.4517C41.4724 27.0638 41.5948 22.8404 43.9207 22.0447C43.9207 22.0447 36.8205 19.4127 35.9023 24.6766C35.9023 24.6766 38.9628 23.3913 40.3094 23.1464C40.3094 23.1464 37.0041 24.7991 36.1472 25.5336H36.2084Z" fill="url(#paint12_linear_1001_54969)"/>
<path d="M43.5527 26.0232C43.5527 26.0232 43.6752 27.0025 44.5933 27.9207C47.1028 30.4915 49.8572 27.0026 52.3056 27.7983C52.3056 27.7983 47.8986 21.1877 43.8588 25.1663C43.8588 25.1663 47.2253 25.962 48.5719 26.5741C48.5719 26.5741 44.7157 25.962 43.5527 26.0232Z" fill="url(#paint13_linear_1001_54969)"/>
<path d="M45.4506 21.7998C45.4506 21.7998 46.1239 22.4731 47.4705 22.6567C51.0818 23.0852 51.0206 18.6169 53.4689 17.6988C53.4689 17.6988 45.879 15.3117 45.1445 20.9429C45.1445 20.9429 48.3274 19.4127 49.7352 19.1066C49.7352 19.1066 46.3075 21.0653 45.4506 21.861V21.7998Z" fill="url(#paint14_linear_1001_54969)"/>
<path d="M38.105 10.6598C38.105 10.6598 38.9007 10.9046 40.0025 10.5374C43.0017 9.55803 41.2879 6.06912 42.8181 4.41648C42.8181 4.41648 35.9627 5.39582 37.5541 10.0477C37.5541 10.0477 39.4516 7.66055 40.4309 6.86484C40.4309 6.86484 38.4722 9.68044 38.105 10.5986V10.6598Z" fill="url(#paint15_linear_1001_54969)"/>
<path d="M36.0855 18.6169C36.0855 18.6169 37.0037 18.2497 37.677 17.1479C39.5132 14.0263 35.4122 12.3124 35.5347 9.74166C35.5347 9.74166 30.3319 15.7401 35.2286 18.6169C35.2286 18.6169 35.1062 15.128 35.351 13.7202C35.351 13.7202 35.7795 17.5764 36.1467 18.6782L36.0855 18.6169Z" fill="url(#paint16_linear_1001_54969)"/>
<path d="M31.3118 10.5374C31.3118 10.5374 32.2912 10.2925 33.1481 9.25199C35.5352 6.37517 32.23 4.78374 32.23 1.35604C32.23 1.35604 25.9254 6.62 30.3937 10.2925C30.3937 10.2925 30.8221 6.74242 31.3118 5.33462C31.3118 5.33462 31.1282 9.3132 31.3118 10.5374Z" fill="url(#paint17_linear_1001_54969)"/>
<path d="M40.4316 17.76C40.4316 17.76 41.4722 18.5557 43.2472 18.3721C48.0215 17.8824 46.3077 12.0064 49.5517 10.1701C49.5517 10.1701 38.5953 9.31321 39.7583 16.7195C39.7583 16.7195 43.4308 13.8427 45.1447 13.0469C45.1447 13.0469 41.2885 16.5359 40.3704 17.8212L40.4316 17.76Z" fill="url(#paint18_linear_1001_54969)"/>
<path d="M40.553 27.6146C40.553 27.6146 43.8583 27.2474 43.8583 31.4096C43.8583 35.5718 43.7359 33.9192 43.6134 34.6537C42.8177 32.695 39.084 32.5113 39.084 29.7569C39.084 27.0025 39.8797 27.7371 39.8797 27.7371C39.8797 27.7371 41.716 30.1242 42.3281 31.3484C42.3281 31.3484 41.2875 28.594 40.6142 27.5534L40.553 27.6146Z" fill="url(#paint19_linear_1001_54969)"/>
<defs>
<linearGradient id="paint0_linear_1001_54969" x1="11.0514" y1="30.4303" x2="17.0499" y2="30.4303" gradientUnits="userSpaceOnUse">
<stop stop-color="#B0D235"/>
<stop offset="1" stop-color="#55A145"/>
</linearGradient>
<linearGradient id="paint1_linear_1001_54969" x1="13.7441" y1="14.8832" x2="19.4978" y2="14.8832" gradientUnits="userSpaceOnUse">
<stop stop-color="#B0D235"/>
<stop offset="1" stop-color="#55A145"/>
</linearGradient>
<linearGradient id="paint2_linear_1001_54969" x1="20.9058" y1="13.7202" x2="27.2103" y2="13.7202" gradientUnits="userSpaceOnUse">
<stop stop-color="#B0D235"/>
<stop offset="1" stop-color="#55A145"/>
</linearGradient>
<linearGradient id="paint3_linear_1001_54969" x1="28.2504" y1="16.8419" x2="32.0453" y2="16.8419" gradientUnits="userSpaceOnUse">
<stop stop-color="#B0D235"/>
<stop offset="1" stop-color="#55A145"/>
</linearGradient>
<linearGradient id="paint4_linear_1001_54969" x1="4.25652" y1="23.8809" x2="12.7033" y2="23.8809" gradientUnits="userSpaceOnUse">
<stop stop-color="#B0D235"/>
<stop offset="1" stop-color="#55A145"/>
</linearGradient>
<linearGradient id="paint5_linear_1001_54969" x1="6.21551" y1="30.7975" x2="9.45958" y2="30.7975" gradientUnits="userSpaceOnUse">
<stop stop-color="#B0D235"/>
<stop offset="1" stop-color="#55A145"/>
</linearGradient>
<linearGradient id="paint6_linear_1001_54969" x1="0.0332031" y1="20.5756" x2="6.2153" y2="20.5756" gradientUnits="userSpaceOnUse">
<stop stop-color="#B0D235"/>
<stop offset="1" stop-color="#55A145"/>
</linearGradient>
<linearGradient id="paint7_linear_1001_54969" x1="12.2745" y1="18.8618" x2="5.29664" y2="13.9651" gradientUnits="userSpaceOnUse">
<stop stop-color="#B0D235"/>
<stop offset="1" stop-color="#55A145"/>
</linearGradient>
<linearGradient id="paint8_linear_1001_54969" x1="11.296" y1="11.5779" x2="7.01139" y2="6.37519" gradientUnits="userSpaceOnUse">
<stop stop-color="#B0D235"/>
<stop offset="1" stop-color="#55A145"/>
</linearGradient>
<linearGradient id="paint9_linear_1001_54969" x1="17.4168" y1="9.49683" x2="17.4168" y2="2.64143" gradientUnits="userSpaceOnUse">
<stop stop-color="#B0D235"/>
<stop offset="1" stop-color="#55A145"/>
</linearGradient>
<linearGradient id="paint10_linear_1001_54969" x1="24.3332" y1="9.49683" x2="24.3332" y2="2.64144" gradientUnits="userSpaceOnUse">
<stop stop-color="#B0D235"/>
<stop offset="1" stop-color="#55A145"/>
</linearGradient>
<linearGradient id="paint11_linear_1001_54969" x1="33.2695" y1="27.8595" x2="40.2473" y2="37.1632" gradientUnits="userSpaceOnUse">
<stop stop-color="#B0D235"/>
<stop offset="1" stop-color="#55A145"/>
</linearGradient>
<linearGradient id="paint12_linear_1001_54969" x1="35.9636" y1="23.9421" x2="43.9819" y2="23.9421" gradientUnits="userSpaceOnUse">
<stop stop-color="#B0D235"/>
<stop offset="1" stop-color="#55A145"/>
</linearGradient>
<linearGradient id="paint13_linear_1001_54969" x1="43.5527" y1="26.3905" x2="52.3056" y2="26.3905" gradientUnits="userSpaceOnUse">
<stop stop-color="#B0D235"/>
<stop offset="1" stop-color="#55A145"/>
</linearGradient>
<linearGradient id="paint14_linear_1001_54969" x1="45.1445" y1="19.9635" x2="53.4689" y2="19.9635" gradientUnits="userSpaceOnUse">
<stop stop-color="#B0D235"/>
<stop offset="1" stop-color="#55A145"/>
</linearGradient>
<linearGradient id="paint15_linear_1001_54969" x1="40.0025" y1="9.49682" x2="40.0025" y2="2.64142" gradientUnits="userSpaceOnUse">
<stop stop-color="#B0D235"/>
<stop offset="1" stop-color="#55A145"/>
</linearGradient>
<linearGradient id="paint16_linear_1001_54969" x1="33.0863" y1="14.1487" x2="38.1054" y2="14.1487" gradientUnits="userSpaceOnUse">
<stop stop-color="#B0D235"/>
<stop offset="1" stop-color="#55A145"/>
</linearGradient>
<linearGradient id="paint17_linear_1001_54969" x1="31.373" y1="9.49682" x2="31.373" y2="2.64143" gradientUnits="userSpaceOnUse">
<stop stop-color="#B0D235"/>
<stop offset="1" stop-color="#55A145"/>
</linearGradient>
<linearGradient id="paint18_linear_1001_54969" x1="39.6971" y1="14.2711" x2="49.5517" y2="14.2711" gradientUnits="userSpaceOnUse">
<stop stop-color="#B0D235"/>
<stop offset="1" stop-color="#55A145"/>
</linearGradient>
<linearGradient id="paint19_linear_1001_54969" x1="37.4313" y1="24.7378" x2="44.3479" y2="34.1028" gradientUnits="userSpaceOnUse">
<stop stop-color="#B0D235"/>
<stop offset="1" stop-color="#55A145"/>
</linearGradient>
</defs>
</svg>

