<svg width="230" height="79" viewBox="0 0 230 79" fill="none" xmlns="http://www.w3.org/2000/svg">
<path d="M23.8582 52.8595C23.8582 33.0835 39.9607 23.2261 40.3281 23.0424C37.5729 25.5527 28.2665 37.3081 28.2665 53.1044C28.2665 68.9007 27.7155 65.5333 30.1645 74.9009C28.7563 72.4518 23.8582 62.7781 23.8582 52.8595Z" fill="#6C4F32"/>
<path d="M24.96 40.3694C21.96 28.6752 14.4904 21.7567 14.4904 21.6955C15.4088 22.4302 23.0008 27.6344 27.1642 35.5938C26.1233 37.1857 25.5111 38.9 24.96 40.3082V40.3694Z" fill="#6C4F32"/>
<path d="M29.1247 63.7577C29.9207 63.819 30.9003 63.819 31.635 63.7577C33.0432 63.5128 34.2677 62.9618 35.1249 61.7373C35.9208 60.574 36.1657 59.1658 36.1657 57.8188C36.1657 51.3901 31.635 42.7572 31.084 41.4715C31.084 41.5939 30.1656 44.4715 29.6758 48.0839C30.8391 50.4105 32.3697 53.6554 32.3697 56.2269C32.3697 58.7984 31.3901 60.574 29.0023 61.0638C29.0023 61.3699 29.1247 63.2679 29.1859 63.819L29.1247 63.7577Z" fill="#6C4F32"/>
<path d="M13.5116 58.676C19.7567 62.2883 24.5323 63.2067 24.5323 63.2067C24.5323 63.2067 24.1649 61.7985 24.0425 61.125C19.8179 60.8189 13.5116 58.7372 13.5116 58.7372V58.676Z" fill="#6A4E31"/>
<path d="M28.5991 31.7111C29.9257 31.3081 30.5946 29.6437 30.0933 27.9937C29.592 26.3436 28.1102 25.3327 26.7837 25.7357C25.4572 26.1388 24.7882 27.8031 25.2896 29.4532C25.7909 31.1032 27.2726 32.1141 28.5991 31.7111Z" fill="#6C4F32"/>
<path d="M16.3281 28.7365C16.3281 28.7365 15.6546 30.6957 15.2873 34.6754C15.2873 34.6754 15.8995 31.308 17.2465 28.859C17.2465 28.859 19.022 29.961 19.022 31.9203C19.022 33.8795 17.6751 35.1652 16.4505 36.1449C15.226 37.1245 14.7362 38.5327 14.7362 39.0837C14.7362 39.0837 12.9607 36.0224 12.9607 32.9611C12.9607 29.8998 16.3281 28.7365 16.3281 28.7365Z" fill="url(#paint0_linear_1001_54968)"/>
<path d="M20.5522 22.4302C20.5522 22.4302 19.9399 20.5934 17.8583 17.4097C17.8583 17.4097 19.3889 20.2873 19.7563 22.8588C19.7563 22.8588 17.797 23.0425 16.695 21.6343C15.5929 20.2261 15.8378 18.4505 16.1439 16.9811C16.4501 15.5117 16.0215 14.2259 15.7153 13.7973C15.7153 13.7973 18.8379 15.0831 20.6134 17.3484C22.6951 20.0424 20.6134 22.4914 20.6134 22.4914L20.5522 22.4302Z" fill="url(#paint1_linear_1001_54968)"/>
<path d="M24.4097 21.5118C24.4097 21.5118 25.6342 19.9812 27.1648 16.4913C27.1648 16.4913 25.573 19.3077 23.675 21.0832C23.675 21.0832 22.5117 19.3077 23.1239 17.5934C23.7362 15.879 25.3893 15.2055 26.7363 14.6545C28.1445 14.1035 28.8179 13.1851 29.0016 12.6953C29.0016 12.6953 29.6751 16.0015 28.7567 18.6954C27.6547 21.8792 24.4709 21.5118 24.4709 21.5118H24.4097Z" fill="url(#paint2_linear_1001_54968)"/>
<path d="M32.3073 23.6547C32.3073 23.6547 32.5523 22.369 32.3073 19.7975C32.3073 19.7975 32.3073 22.0016 31.6951 23.6547C31.6951 23.6547 30.4706 22.9812 30.2257 21.7567C29.9808 20.5322 30.7767 19.6138 31.4502 18.8791C32.1237 18.1444 32.2461 17.3484 32.1849 16.9811C32.1849 16.9811 33.6543 18.7566 33.9605 20.6546C34.3278 22.92 32.3073 23.6547 32.3073 23.6547Z" fill="url(#paint3_linear_1001_54968)"/>
<path d="M11.7966 24.267C12.2864 24.267 13.3885 24.3894 14.1232 24.8792C14.1232 24.8792 11.613 26.2262 9.59249 27.8793C9.59249 27.8793 13.0824 25.9201 14.613 25.614C14.613 25.614 15.2865 29.8386 10.6333 29.8386C5.98016 29.8386 8.91901 29.7161 8.24552 29.7161C7.57204 29.7161 6.95978 29.8386 6.16384 30.3284C6.59242 28.9202 8.4292 24.2058 11.7354 24.2058L11.7966 24.267Z" fill="url(#paint4_linear_1001_54968)"/>
<path d="M8.30705 36.6346C8.30705 36.6346 8.12337 35.655 8.12337 34.2468C8.12337 32.8386 9.04176 31.9202 10.3887 31.9202C10.3887 31.9202 9.65402 32.8998 9.28667 34.3692C9.28667 34.3692 10.3275 32.6549 10.9398 32.0427C10.9398 32.0427 11.4296 32.5325 11.4296 33.3284C11.4296 34.1243 10.6949 34.9203 9.77647 35.3489C8.85808 35.7774 8.55195 35.9611 8.30705 36.6346Z" fill="url(#paint5_linear_1001_54968)"/>
<path d="M8.18439 24.6343C8.18439 24.6343 7.69458 25.7976 6.34761 25.7976C5.00064 25.7976 3.59244 23.5323 2.00056 23.5323C2.00056 23.5323 3.83734 22.2465 5.79657 22.2465C7.75581 22.2465 8.18439 23.716 8.18439 24.0221C8.18439 24.0221 7.266 23.6547 5.18431 23.7772C5.18431 23.7772 7.38845 24.2058 8.18439 24.6343Z" fill="url(#paint6_linear_1001_54968)"/>
<path d="M4.93888 17.2259C4.93888 17.2259 6.1634 16.7361 8.85735 16.7361C11.5513 16.7361 13.3881 18.0831 13.3881 20.3485C13.3881 20.3485 11.4288 19.124 9.16348 18.7566C9.16348 18.7566 12.1023 20.2872 13.0819 21.2669C13.0819 21.2669 12.5309 22.2465 10.7554 22.2465C7.0818 22.2465 7.44915 17.7158 4.93888 17.2872V17.2259Z" fill="url(#paint7_linear_1001_54968)"/>
<path d="M7.20514 7.91964C7.20514 7.91964 8.67457 7.98086 11.3073 9.26661C13.94 10.5524 15.1645 12.6953 14.0625 14.8994C14.0625 14.8994 12.7155 12.8177 10.695 11.3483C10.695 11.3483 12.8379 14.2259 13.389 15.6953C13.389 15.6953 12.4094 16.3688 10.6338 15.5729C7.02147 13.8586 9.47051 9.57274 7.20514 7.98086V7.91964Z" fill="url(#paint8_linear_1001_54968)"/>
<path d="M17.0012 4.61341C17.0012 4.61341 18.2257 5.10322 20.1849 6.87878C22.1442 8.65433 22.5727 10.8585 21.0421 12.5116C21.0421 12.5116 20.4298 10.3074 19.0829 8.53188C19.0829 8.53188 20.1849 11.5932 20.2461 13.0014C20.2461 13.0014 19.2053 13.3075 17.9196 12.1442C15.2256 9.69518 18.5318 6.63387 17.0012 4.61341Z" fill="url(#paint9_linear_1001_54968)"/>
<path d="M26.5523 4.00112C26.5523 4.00112 27.3482 4.85829 28.2054 7.06242C29.0626 9.26656 28.5115 11.2258 26.6747 11.9605C26.6747 11.9605 26.9196 10.3686 26.5523 8.34817C26.5523 8.34817 26.3074 10.8584 25.8176 12.0217C25.8176 12.0217 24.838 11.8381 24.2869 10.4299C23.1236 7.36855 26.9809 6.26648 26.5523 4.06235V4.00112Z" fill="url(#paint10_linear_1001_54968)"/>
<path d="M35.7972 32.2264C35.7972 32.2264 35.2462 32.9611 35.2462 34.1856C35.2462 37.553 39.3483 37.002 40.4504 39.0837C40.4504 39.0837 41.7974 31.859 36.532 31.859C36.532 31.859 38.2463 34.553 38.7361 35.8387C38.7361 35.8387 36.5932 32.9611 35.736 32.2264H35.7972Z" fill="url(#paint11_linear_1001_54968)"/>
<path d="M38.1859 28.9814C38.1859 28.9814 38.7981 29.6549 40.0227 29.8998C43.4513 30.512 43.5738 26.2874 45.9004 25.4915C45.9004 25.4915 38.7981 22.8588 37.8798 28.1242C37.8798 28.1242 40.9411 26.8385 42.288 26.5936C42.288 26.5936 38.9818 28.2467 38.1247 28.9814H38.1859Z" fill="url(#paint12_linear_1001_54968)"/>
<path d="M45.5323 29.4712C45.5323 29.4712 45.6547 30.4508 46.5731 31.3692C49.0834 33.9407 51.8386 30.4508 54.2876 31.2467C54.2876 31.2467 49.8793 24.6343 45.8384 28.614C45.8384 28.614 49.2059 29.41 50.5528 30.0222C50.5528 30.0222 46.6956 29.41 45.5323 29.4712Z" fill="url(#paint13_linear_1001_54968)"/>
<path d="M47.4307 25.2466C47.4307 25.2466 48.1041 25.9201 49.4511 26.1038C53.0635 26.5323 53.0022 22.0628 55.4513 21.1445C55.4513 21.1445 47.8592 18.7566 47.1245 24.3894C47.1245 24.3894 50.3083 22.8588 51.7165 22.5526C51.7165 22.5526 48.2878 24.5119 47.4307 25.3078V25.2466Z" fill="url(#paint14_linear_1001_54968)"/>
<path d="M40.083 14.1035C40.083 14.1035 40.879 14.3484 41.981 13.981C44.9811 13.0014 43.2668 9.51151 44.7974 7.8584C44.7974 7.8584 37.9401 8.83802 39.532 13.4912C39.532 13.4912 41.43 11.1034 42.4096 10.3074C42.4096 10.3074 40.4504 13.1238 40.083 14.0422V14.1035Z" fill="url(#paint15_linear_1001_54968)"/>
<path d="M38.063 22.0628C38.063 22.0628 38.9814 21.6954 39.6549 20.5934C41.4917 17.4709 37.3895 15.7565 37.512 13.185C37.512 13.185 32.3078 19.1852 37.2058 22.0628C37.2058 22.0628 37.0834 18.5729 37.3283 17.1647C37.3283 17.1647 37.7569 21.022 38.1242 22.124L38.063 22.0628Z" fill="url(#paint16_linear_1001_54968)"/>
<path d="M33.2879 13.981C33.2879 13.981 34.2676 13.7361 35.1247 12.6952C37.5125 9.81759 34.2063 8.22572 34.2063 4.79706C34.2063 4.79706 27.9001 10.0625 32.3696 13.7361C32.3696 13.7361 32.7981 10.185 33.2879 8.77675C33.2879 8.77675 33.1043 12.7564 33.2879 13.981Z" fill="url(#paint17_linear_1001_54968)"/>
<path d="M42.4103 21.2057C42.4103 21.2057 43.4511 22.0016 45.2267 21.818C50.0023 21.3281 48.288 15.4504 51.533 13.6137C51.533 13.6137 40.5735 12.7565 41.7368 20.1649C41.7368 20.1649 45.4104 17.2872 47.1247 16.4913C47.1247 16.4913 43.2675 19.9812 42.3491 21.2669L42.4103 21.2057Z" fill="url(#paint18_linear_1001_54968)"/>
<path d="M42.5317 31.063C42.5317 31.063 45.8379 30.6957 45.8379 34.859C45.8379 39.0224 45.7155 37.3693 45.593 38.104C44.7971 36.1448 41.0623 35.9611 41.0623 33.2059C41.0623 30.4508 41.8582 31.1855 41.8582 31.1855C41.8582 31.1855 43.695 33.5733 44.3073 34.7978C44.3073 34.7978 43.2664 32.0426 42.5929 31.0018L42.5317 31.063Z" fill="url(#paint19_linear_1001_54968)"/>
<path d="M55.8908 45.696C55.3398 45.3286 55.3398 44.7776 55.7071 44.2878L56.0745 43.798C56.4418 43.3082 56.9316 43.247 57.4827 43.5531C58.4623 44.0429 59.6256 44.2266 60.3603 44.2266C62.1358 44.2266 63.3604 43.1857 63.3604 41.7163C63.3604 40.2469 62.2583 39.451 60.7276 39.451C59.197 39.451 59.197 39.6346 58.4623 40.0632C57.9725 40.3081 57.6051 40.4306 57.1153 40.2469L56.5643 40.002C56.0132 39.7571 55.8296 39.451 55.8296 38.8387L56.1969 33.3283C56.1969 32.6549 56.5643 32.3487 57.2378 32.3487H64.5237C65.1359 32.3487 65.5033 32.7161 65.5033 33.3283V33.9406C65.5033 34.5529 65.1359 34.9202 64.5237 34.9202H59.0133L58.7684 38.0427C59.4419 37.4917 60.6052 37.1244 61.7685 37.1244C64.6461 37.1244 66.5441 39.1448 66.5441 41.7163C66.5441 44.2878 64.4012 46.8593 60.6052 46.8593C56.8092 46.8593 57.299 46.4919 56.0132 45.696H55.8908Z" fill="#428D34"/>
<path d="M68.1981 45.696V45.4511C68.0756 44.9613 68.1981 44.5327 68.6266 44.1654L73.5859 39.6959C74.688 38.7162 75.484 37.7979 75.484 36.6346C75.484 35.4713 74.5043 34.6753 73.2186 34.6753C71.9328 34.6753 71.3818 35.1651 71.1369 35.7774C70.892 36.3284 70.6471 36.6346 70.0961 36.6346H68.994C68.3205 36.6346 67.9532 36.2672 68.0756 35.5937C68.443 33.8182 69.9736 32.0426 73.341 32.0426C76.7085 32.0426 78.6065 33.8182 78.6065 36.6346C78.6065 39.451 77.3207 40.2469 75.9738 41.4102L72.9125 44.0429C73.7084 44.0429 75.7289 44.0429 75.8513 44.0429H78.2391C78.8514 44.0429 79.2187 44.4103 79.2187 45.0225V45.6348C79.2187 46.2471 78.8514 46.6144 78.2391 46.6144H69.3614C68.7491 46.6144 68.3817 46.3083 68.3205 45.696H68.1981Z" fill="#428D34"/>
<path d="M80.6867 42.3898C80.6867 40.6755 82.0949 39.3285 83.3806 38.9612C82.401 38.5938 81.2989 37.553 81.2989 36.0835C81.2989 33.7569 83.5031 32.1038 86.7481 32.1038C89.993 32.1038 92.1972 33.7569 92.1972 36.0835C92.1972 38.4101 91.0951 38.5938 90.1155 38.9612C91.34 39.3285 92.8094 40.6143 92.8094 42.3898C92.8094 45.0225 90.2379 46.7981 86.7481 46.7981C83.2582 46.7981 80.6867 45.0225 80.6867 42.3898ZM89.5032 42.2061C89.5032 41.1653 88.5236 40.1857 86.7481 40.1857C84.9725 40.1857 83.9929 41.1041 83.9929 42.2061C83.9929 43.3082 85.0949 44.2266 86.7481 44.2266C88.4012 44.2266 89.5032 43.3082 89.5032 42.2061ZM89.0134 36.3897C89.0134 35.4713 88.095 34.6753 86.7481 34.6753C85.4011 34.6753 84.4215 35.4713 84.4215 36.3897C84.4215 37.3081 85.2174 38.1652 86.7481 38.1652C88.2787 38.1652 89.0134 37.2468 89.0134 36.3897Z" fill="#428D34"/>
<path d="M94.464 39.5122C94.464 35.4101 96.8518 32.1651 100.831 32.1651C104.811 32.1651 107.199 35.4713 107.199 39.5122C107.199 43.5531 104.75 46.8593 100.831 46.8593C96.913 46.8593 94.464 43.5531 94.464 39.5122ZM104.138 39.5122C104.138 36.8183 102.852 34.7366 100.831 34.7366C98.811 34.7366 97.5865 36.8183 97.5865 39.5122C97.5865 42.2062 98.811 44.2878 100.831 44.2878C102.852 44.2878 104.138 42.2062 104.138 39.5122Z" fill="#428D34"/>
<path d="M111.607 43.0633V35.7774C111.607 35.41 111.852 35.2264 112.22 35.2264H112.954C113.322 35.2264 113.505 35.41 113.505 35.7774V38.8387H116.689V35.7774C116.689 35.41 116.873 35.2264 117.24 35.2264H117.975C118.342 35.2264 118.526 35.41 118.526 35.7774V43.0633C118.526 43.4306 118.342 43.6143 117.975 43.6143H117.24C116.873 43.6143 116.689 43.4306 116.689 43.0633V40.3694H113.505V43.0633C113.505 43.4306 113.322 43.6143 112.954 43.6143H112.22C111.852 43.6143 111.607 43.4306 111.607 43.0633Z" fill="#6C4F32"/>
<path d="M120.179 41.0428V38.0427C120.179 37.6754 120.363 37.4917 120.73 37.4917H121.465C121.832 37.4917 122.016 37.6754 122.016 38.0427V40.9204C122.016 41.7775 122.383 42.3286 122.995 42.3286C123.608 42.3286 124.281 41.8388 124.281 40.6755V38.104C124.281 37.7366 124.465 37.5529 124.832 37.5529H125.506C125.873 37.5529 126.118 37.7366 126.118 38.104V43.1245C126.118 43.4919 125.873 43.6755 125.506 43.6755H124.832C124.465 43.6755 124.281 43.4919 124.281 43.1245V42.6959C123.975 43.3694 123.301 43.798 122.383 43.798C120.73 43.798 120.118 42.5122 120.118 41.0428H120.179Z" fill="#6C4F32"/>
<path d="M127.71 43.0633V38.0428C127.71 37.6754 127.893 37.4917 128.261 37.4917H128.995C129.363 37.4917 129.546 37.6754 129.546 38.0428V38.4714C129.791 37.7367 130.465 37.3693 131.199 37.3693C131.934 37.3693 132.608 37.6754 132.975 38.4714C133.526 37.553 134.261 37.3693 134.996 37.3693C136.587 37.3693 137.261 38.655 137.261 40.1245V43.1245C137.261 43.4919 137.016 43.6756 136.649 43.6756H135.975C135.608 43.6756 135.424 43.4919 135.424 43.1245V40.2469C135.424 39.3898 135.057 38.8999 134.506 38.8999C133.955 38.8999 133.404 39.3285 133.404 40.4306V43.1245C133.404 43.4919 133.22 43.6756 132.853 43.6756H132.118C131.751 43.6756 131.567 43.4919 131.567 43.1245V40.2469C131.567 39.3898 131.261 38.8999 130.71 38.8999C130.159 38.8999 129.608 39.3285 129.608 40.4918V43.1245C129.608 43.4919 129.424 43.6756 129.057 43.6756H128.322C127.955 43.6756 127.771 43.4919 127.771 43.1245L127.71 43.0633Z" fill="#6C4F32"/>
<path d="M138.363 40.553C138.363 38.7163 139.588 37.3081 141.363 37.3081C143.139 37.3081 142.894 37.6142 143.384 38.3489V38.0428C143.384 37.6754 143.567 37.4917 143.935 37.4917H144.669C145.037 37.4917 145.22 37.6754 145.22 38.0428V43.0633C145.22 43.4307 145.037 43.6143 144.669 43.6143H143.935C143.567 43.6143 143.384 43.4307 143.384 43.0633V42.7572C142.955 43.4307 142.22 43.7368 141.363 43.7368C139.649 43.7368 138.363 42.3286 138.363 40.4918V40.553ZM143.322 40.553C143.322 39.5734 142.71 38.8387 141.73 38.8387C140.751 38.8387 140.2 39.6346 140.2 40.553C140.2 41.4714 140.751 42.2674 141.73 42.2674C142.71 42.2674 143.322 41.5327 143.322 40.553Z" fill="#6C4F32"/>
<path d="M146.69 43.0633V38.0428C146.69 37.6754 146.873 37.4917 147.241 37.4917H147.975C148.343 37.4917 148.526 37.6754 148.526 38.0428V38.4714C148.832 37.7367 149.506 37.3693 150.424 37.3693C152.077 37.3693 152.69 38.655 152.69 40.1245V43.1245C152.69 43.4919 152.445 43.6756 152.077 43.6756H151.404C151.037 43.6756 150.853 43.4919 150.853 43.1245V40.2469C150.853 39.3898 150.486 38.8999 149.873 38.8999C149.261 38.8999 148.588 39.3898 148.588 40.553V43.1245C148.588 43.4919 148.404 43.6756 148.037 43.6756H147.302C146.934 43.6756 146.751 43.4919 146.751 43.1245L146.69 43.0633Z" fill="#6C4F32"/>
<path d="M156.729 39.4509C156.729 37.1244 158.505 35.1039 161.383 35.1039C164.26 35.1039 163.281 35.41 163.954 35.8998C164.26 36.0835 164.321 36.3896 164.077 36.6958L163.77 37.0631C163.526 37.3693 163.281 37.3693 162.975 37.1856C162.485 36.8794 161.934 36.757 161.383 36.757C159.668 36.757 158.689 37.9815 158.689 39.4509C158.689 40.9204 159.73 42.1449 161.383 42.1449C163.036 42.1449 162.485 42.0224 162.975 41.7163C163.281 41.5326 163.587 41.5326 163.77 41.8388L164.077 42.2061C164.321 42.5122 164.26 42.7571 164.077 43.0021C163.342 43.4919 162.546 43.8592 161.444 43.8592C158.566 43.8592 156.791 41.8388 156.791 39.5122L156.729 39.4509Z" fill="#6C4F32"/>
<path d="M164.872 40.553C164.872 38.7163 166.097 37.3081 167.872 37.3081C169.648 37.3081 169.403 37.6142 169.893 38.3489V38.0428C169.893 37.6754 170.077 37.4917 170.444 37.4917H171.179C171.546 37.4917 171.73 37.6754 171.73 38.0428V43.0633C171.73 43.4307 171.546 43.6143 171.179 43.6143H170.444C170.077 43.6143 169.893 43.4307 169.893 43.0633V42.7572C169.464 43.4307 168.73 43.7368 167.872 43.7368C166.158 43.7368 164.872 42.3286 164.872 40.4918V40.553ZM169.893 40.553C169.893 39.5734 169.281 38.8387 168.301 38.8387C167.321 38.8387 166.77 39.6346 166.77 40.553C166.77 41.4714 167.321 42.2674 168.301 42.2674C169.281 42.2674 169.893 41.5327 169.893 40.553Z" fill="#6C4F32"/>
<path d="M173.2 43.0633V38.0428C173.2 37.6754 173.383 37.4917 173.751 37.4917H174.424C174.791 37.4917 174.975 37.6754 174.975 38.0428V38.8387C175.159 37.6754 176.077 37.3693 176.567 37.3693H176.751C177.057 37.3693 177.118 37.6142 177.118 37.8591V38.7163C177.118 39.0836 176.934 39.2061 176.689 39.1449C176.567 39.1449 176.506 39.1449 176.383 39.1449C175.649 39.1449 174.975 39.6347 174.975 41.1653V43.1245C174.975 43.4919 174.791 43.6756 174.424 43.6756H173.689C173.322 43.6756 173.138 43.4919 173.138 43.1245L173.2 43.0633Z" fill="#6C4F32"/>
<path d="M177.609 40.553C177.609 38.7775 178.895 37.3081 181.038 37.3081C183.181 37.3081 184.221 38.3489 184.344 40.3694C184.344 40.7367 184.099 40.8592 183.732 40.8592H179.385C179.385 41.5939 180.119 42.3286 181.283 42.3286C182.446 42.3286 182.201 42.2061 182.63 41.9612C182.936 41.7776 183.242 41.7776 183.426 42.0837L183.548 42.2674C183.793 42.5735 183.793 42.8796 183.426 43.1245C182.691 43.6143 181.895 43.798 181.099 43.798C178.895 43.798 177.548 42.3898 177.548 40.6143L177.609 40.553ZM182.568 39.8183C182.385 38.9612 181.711 38.7163 181.038 38.7163C180.364 38.7163 179.629 39.0224 179.446 39.8183H182.568Z" fill="#6C4F32"/>
<path d="M187.955 39.4509C187.955 37.1244 189.731 35.1039 192.608 35.1039C195.486 35.1039 194.506 35.41 195.18 35.8998C195.486 36.0835 195.547 36.3896 195.302 36.6958L194.996 37.0631C194.751 37.3693 194.506 37.3693 194.2 37.1856C193.71 36.8794 193.159 36.757 192.608 36.757C190.894 36.757 189.914 37.9815 189.914 39.4509C189.914 40.9204 190.955 42.1449 192.608 42.1449C194.261 42.1449 193.71 42.0224 194.2 41.7163C194.506 41.5326 194.812 41.5326 194.996 41.8388L195.302 42.2061C195.547 42.5122 195.486 42.7571 195.302 43.0021C194.567 43.4919 193.771 43.8592 192.669 43.8592C189.792 43.8592 188.016 41.8388 188.016 39.5122L187.955 39.4509Z" fill="#6C4F32"/>
<path d="M196.099 40.553C196.099 38.7775 197.384 37.3081 199.527 37.3081C201.67 37.3081 202.711 38.3489 202.833 40.3694C202.833 40.7367 202.589 40.8592 202.221 40.8592H197.874C197.874 41.5939 198.609 42.3286 199.772 42.3286C200.935 42.3286 200.691 42.2061 201.119 41.9612C201.425 41.7776 201.731 41.7776 201.915 42.0837L202.038 42.2674C202.282 42.5735 202.282 42.8796 201.915 43.1245C201.18 43.6143 200.384 43.798 199.588 43.798C197.384 43.798 196.037 42.3898 196.037 40.6143L196.099 40.553ZM200.997 39.8183C200.813 38.9612 200.14 38.7163 199.466 38.7163C198.793 38.7163 198.058 39.0224 197.874 39.8183H200.997Z" fill="#6C4F32"/>
<path d="M203.813 43.0633V38.0428C203.813 37.6754 203.997 37.4917 204.364 37.4917H205.099C205.466 37.4917 205.65 37.6754 205.65 38.0428V38.4714C205.956 37.7367 206.629 37.3693 207.548 37.3693C209.201 37.3693 209.813 38.655 209.813 40.1245V43.1245C209.813 43.4919 209.568 43.6756 209.201 43.6756H208.527C208.16 43.6756 207.976 43.4919 207.976 43.1245V40.2469C207.976 39.3898 207.609 38.8999 206.997 38.8999C206.384 38.8999 205.711 39.3898 205.711 40.553V43.1245C205.711 43.4919 205.527 43.6756 205.16 43.6756H204.425C204.058 43.6756 203.874 43.4919 203.874 43.1245L203.813 43.0633Z" fill="#6C4F32"/>
<path d="M211.589 41.5939V38.8387H210.976C210.793 38.8387 210.67 38.7163 210.67 38.5326V37.7367C210.67 37.553 210.793 37.4305 210.976 37.4305H211.711L211.895 36.1448C211.895 35.8999 212.14 35.7774 212.385 35.7774H212.997C213.303 35.7774 213.426 35.9611 213.426 36.206V37.4305H214.834C215.017 37.4305 215.14 37.553 215.14 37.7367V38.5326C215.14 38.7163 215.017 38.8387 214.834 38.8387H213.426V41.6551C213.426 42.0837 213.67 42.2674 213.915 42.2674C214.16 42.2674 214.405 42.0225 214.405 41.7163C214.405 41.4102 214.405 41.5939 214.405 41.4714C214.405 41.2265 214.405 41.1653 214.65 41.1653H215.385C215.568 41.1653 215.691 41.1653 215.752 41.4102C215.752 41.5939 215.813 41.7776 215.813 41.9C215.813 43.247 214.834 43.798 213.732 43.798C212.63 43.798 211.589 43.3082 211.589 41.5939Z" fill="#6C4F32"/>
<path d="M216.364 40.553C216.364 38.7775 217.65 37.3081 219.793 37.3081C221.936 37.3081 222.976 38.3489 223.099 40.3694C223.099 40.7367 222.854 40.8592 222.487 40.8592H218.14C218.14 41.5939 218.874 42.3286 220.038 42.3286C221.201 42.3286 220.956 42.2061 221.385 41.9612C221.691 41.7776 221.997 41.7776 222.181 42.0837L222.303 42.2674C222.548 42.5735 222.548 42.8796 222.181 43.1245C221.446 43.6143 220.65 43.798 219.854 43.798C217.65 43.798 216.303 42.3898 216.303 40.6143L216.364 40.553ZM221.262 39.8183C221.078 38.9612 220.405 38.7163 219.731 38.7163C219.058 38.7163 218.323 39.0224 218.14 39.8183H221.262Z" fill="#6C4F32"/>
<path d="M224.079 43.0633V38.0428C224.079 37.6754 224.263 37.4917 224.63 37.4917H225.304C225.671 37.4917 225.855 37.6754 225.855 38.0428V38.8387C226.038 37.6754 226.957 37.3693 227.447 37.3693H227.63C227.936 37.3693 227.998 37.6142 227.998 37.8591V38.7163C227.998 39.0836 227.814 39.2061 227.569 39.1449C227.447 39.1449 227.385 39.1449 227.263 39.1449C226.528 39.1449 225.855 39.6347 225.855 41.1653V43.1245C225.855 43.4919 225.671 43.6756 225.304 43.6756H224.569C224.202 43.6756 224.018 43.4919 224.018 43.1245L224.079 43.0633Z" fill="#6C4F32"/>
<defs>
<linearGradient id="paint0_linear_1001_54968" x1="13.0219" y1="33.8795" x2="19.022" y2="33.8795" gradientUnits="userSpaceOnUse">
<stop stop-color="#B0D235"/>
<stop offset="1" stop-color="#55A145"/>
</linearGradient>
<linearGradient id="paint1_linear_1001_54968" x1="15.7153" y1="18.3281" x2="21.4706" y2="18.3281" gradientUnits="userSpaceOnUse">
<stop stop-color="#B0D235"/>
<stop offset="1" stop-color="#55A145"/>
</linearGradient>
<linearGradient id="paint2_linear_1001_54968" x1="22.879" y1="17.1648" x2="29.1853" y2="17.1648" gradientUnits="userSpaceOnUse">
<stop stop-color="#B0D235"/>
<stop offset="1" stop-color="#55A145"/>
</linearGradient>
<linearGradient id="paint3_linear_1001_54968" x1="30.2257" y1="20.2873" x2="34.0217" y2="20.2873" gradientUnits="userSpaceOnUse">
<stop stop-color="#B0D235"/>
<stop offset="1" stop-color="#55A145"/>
</linearGradient>
<linearGradient id="paint4_linear_1001_54968" x1="6.22506" y1="27.3283" x2="14.6743" y2="27.3283" gradientUnits="userSpaceOnUse">
<stop stop-color="#B0D235"/>
<stop offset="1" stop-color="#55A145"/>
</linearGradient>
<linearGradient id="paint5_linear_1001_54968" x1="8.1846" y1="34.2468" x2="11.4296" y2="34.2468" gradientUnits="userSpaceOnUse">
<stop stop-color="#B0D235"/>
<stop offset="1" stop-color="#55A145"/>
</linearGradient>
<linearGradient id="paint6_linear_1001_54968" x1="2.00056" y1="24.0221" x2="8.18439" y2="24.0221" gradientUnits="userSpaceOnUse">
<stop stop-color="#B0D235"/>
<stop offset="1" stop-color="#55A145"/>
</linearGradient>
<linearGradient id="paint7_linear_1001_54968" x1="14.2452" y1="22.3077" x2="7.26547" y2="17.4096" gradientUnits="userSpaceOnUse">
<stop stop-color="#B0D235"/>
<stop offset="1" stop-color="#55A145"/>
</linearGradient>
<linearGradient id="paint8_linear_1001_54968" x1="13.2665" y1="15.0219" x2="8.9807" y2="9.81765" gradientUnits="userSpaceOnUse">
<stop stop-color="#B0D235"/>
<stop offset="1" stop-color="#55A145"/>
</linearGradient>
<linearGradient id="paint9_linear_1001_54968" x1="19.389" y1="12.9402" x2="19.389" y2="6.08284" gradientUnits="userSpaceOnUse">
<stop stop-color="#B0D235"/>
<stop offset="1" stop-color="#55A145"/>
</linearGradient>
<linearGradient id="paint10_linear_1001_54968" x1="26.3074" y1="12.9401" x2="26.3074" y2="6.08281" gradientUnits="userSpaceOnUse">
<stop stop-color="#B0D235"/>
<stop offset="1" stop-color="#55A145"/>
</linearGradient>
<linearGradient id="paint11_linear_1001_54968" x1="35.2462" y1="31.308" x2="42.226" y2="40.6143" gradientUnits="userSpaceOnUse">
<stop stop-color="#B0D235"/>
<stop offset="1" stop-color="#55A145"/>
</linearGradient>
<linearGradient id="paint12_linear_1001_54968" x1="37.941" y1="27.3895" x2="45.9616" y2="27.3895" gradientUnits="userSpaceOnUse">
<stop stop-color="#B0D235"/>
<stop offset="1" stop-color="#55A145"/>
</linearGradient>
<linearGradient id="paint13_linear_1001_54968" x1="45.5323" y1="29.8385" x2="54.2876" y2="29.8385" gradientUnits="userSpaceOnUse">
<stop stop-color="#B0D235"/>
<stop offset="1" stop-color="#55A145"/>
</linearGradient>
<linearGradient id="paint14_linear_1001_54968" x1="47.1245" y1="23.4098" x2="55.4513" y2="23.4098" gradientUnits="userSpaceOnUse">
<stop stop-color="#B0D235"/>
<stop offset="1" stop-color="#55A145"/>
</linearGradient>
<linearGradient id="paint15_linear_1001_54968" x1="41.981" y1="12.9402" x2="41.981" y2="6.08285" gradientUnits="userSpaceOnUse">
<stop stop-color="#B0D235"/>
<stop offset="1" stop-color="#55A145"/>
</linearGradient>
<linearGradient id="paint16_linear_1001_54968" x1="35.0629" y1="17.5933" x2="40.0835" y2="17.5933" gradientUnits="userSpaceOnUse">
<stop stop-color="#B0D235"/>
<stop offset="1" stop-color="#55A145"/>
</linearGradient>
<linearGradient id="paint17_linear_1001_54968" x1="33.3492" y1="12.9401" x2="33.3492" y2="6.08281" gradientUnits="userSpaceOnUse">
<stop stop-color="#B0D235"/>
<stop offset="1" stop-color="#55A145"/>
</linearGradient>
<linearGradient id="paint18_linear_1001_54968" x1="41.6756" y1="17.7158" x2="51.533" y2="17.7158" gradientUnits="userSpaceOnUse">
<stop stop-color="#B0D235"/>
<stop offset="1" stop-color="#55A145"/>
</linearGradient>
<linearGradient id="paint19_linear_1001_54968" x1="39.4092" y1="28.1854" x2="46.3277" y2="37.553" gradientUnits="userSpaceOnUse">
<stop stop-color="#B0D235"/>
<stop offset="1" stop-color="#55A145"/>
</linearGradient>
</defs>
</svg>
