<svg width="24" height="24" viewBox="0 0 24 24" fill="none" xmlns="http://www.w3.org/2000/svg">
<path d="M10 5H4V19H10V5ZM4 21C3.45 21 2.97917 20.8042 2.5875 20.4125C2.19583 20.0208 2 19.55 2 19V5C2 4.45 2.19583 3.97917 2.5875 3.5875C2.97917 3.19583 3.45 3 4 3H18C18.55 3 19.0208 3.19583 19.4125 3.5875C19.8042 3.97917 20 4.45 20 5V6C20 6.28333 19.9042 6.52083 19.7125 6.7125C19.5208 6.90417 19.2833 7 19 7C18.7167 7 18.4792 6.90417 18.2875 6.7125C18.0958 6.52083 18 6.28333 18 6V5H12V19H18V18C18 17.7167 18.0958 17.4792 18.2875 17.2875C18.4792 17.0958 18.7167 17 19 17C19.2833 17 19.5208 17.0958 19.7125 17.2875C19.9042 17.4792 20 17.7167 20 18V19C20 19.55 19.8042 20.0208 19.4125 20.4125C19.0208 20.8042 18.55 21 18 21H4ZM19 15C18.7167 15 18.4792 14.9042 18.2875 14.7125C18.0958 14.5208 18 14.2833 18 14V13H17C16.7167 13 16.4792 12.9042 16.2875 12.7125C16.0958 12.5208 16 12.2833 16 12C16 11.7167 16.0958 11.4792 16.2875 11.2875C16.4792 11.0958 16.7167 11 17 11H18V10C18 9.71667 18.0958 9.47917 18.2875 9.2875C18.4792 9.09583 18.7167 9 19 9C19.2833 9 19.5208 9.09583 19.7125 9.2875C19.9042 9.47917 20 9.71667 20 10V11H21C21.2833 11 21.5208 11.0958 21.7125 11.2875C21.9042 11.4792 22 11.7167 22 12C22 12.2833 21.9042 12.5208 21.7125 12.7125C21.5208 12.9042 21.2833 13 21 13H20V14C20 14.2833 19.9042 14.5208 19.7125 14.7125C19.5208 14.9042 19.2833 15 19 15Z" fill="#202120"/>
</svg>
